<?xml version="1.0" encoding="utf-8"?>
<!-- Generator: Adobe Illustrator 24.0.1, SVG Export Plug-In . SVG Version: 6.00 Build 0)  -->
<svg version="1.1" id="background" xmlns="http://www.w3.org/2000/svg" xmlns:xlink="http://www.w3.org/1999/xlink" x="0px" y="0px"
	 viewBox="0 0 750 500" style="enable-background:new 0 0 750 500;" xml:space="preserve">
<style type="text/css">
	.st0{fill:#13264D;}
	.st1{clip-path:url(#SVGID_2_);fill:url(#SVGID_3_);}
	.st2{clip-path:url(#SVGID_2_);fill:url(#SVGID_4_);}
	.st3{fill:none;stroke:#FFFFFF;stroke-linecap:round;stroke-miterlimit:10;}
	.st4{fill:none;stroke:#FFFFFF;stroke-linecap:round;stroke-miterlimit:10;stroke-dasharray:6.0749,10.1248;}
	.st5{fill:none;stroke:#FFFFFF;stroke-linecap:round;stroke-miterlimit:10;stroke-dasharray:5.9505,9.9175;}
	.st6{fill:none;stroke:#FFFFFF;stroke-linecap:round;stroke-miterlimit:10;stroke-dasharray:6.0502,10.0837;}
	.st7{fill:none;stroke:#FFFFFF;stroke-linecap:round;stroke-miterlimit:10;stroke-dasharray:5.8917,9.8195;}
	.st8{fill:none;stroke:#FFFFFF;stroke-linecap:round;stroke-miterlimit:10;stroke-dasharray:5.9597,9.9328;}
	.st9{fill:none;stroke:#FFFFFF;stroke-linecap:round;stroke-miterlimit:10;stroke-dasharray:5.5359,9.2266;}
	.st10{fill:none;stroke:#FFFFFF;stroke-linecap:round;stroke-miterlimit:10;stroke-dasharray:5.9295,9.8825;}
	.st11{fill:none;stroke:#FFFFFF;stroke-linecap:round;stroke-miterlimit:10;stroke-dasharray:6.3632,10.6053;}
	.st12{fill:none;stroke:#FFFFFF;stroke-linecap:round;stroke-miterlimit:10;stroke-dasharray:5.4663,9.1105;}
	.st13{fill:none;stroke:#FFFFFF;stroke-linecap:round;stroke-miterlimit:10;stroke-dasharray:5.9292,9.882;}
	.st14{fill:none;stroke:#FFFFFF;stroke-linecap:round;stroke-miterlimit:10;stroke-dasharray:5.9098,9.8496;}
	.st15{fill:url(#SVGID_5_);}
	.st16{fill:#FFFFFF;}
	.st17{fill:url(#SVGID_6_);}
	.st18{fill:url(#SVGID_7_);}
	.st19{fill:url(#SVGID_8_);}
	.st20{fill:url(#SVGID_9_);}
	.st21{fill:url(#SVGID_10_);}
	.st22{fill:url(#SVGID_11_);}
	.st23{fill:url(#SVGID_12_);}
	.st24{fill:url(#SVGID_13_);}
	.st25{fill:url(#SVGID_14_);}
	.st26{fill:url(#SVGID_15_);}
</style>
<rect class="st0" width="750" height="500"/>
<g>
	<defs>
		<rect id="SVGID_1_" width="750" height="500"/>
	</defs>
	<clipPath id="SVGID_2_">
		<use xlink:href="#SVGID_1_"  style="overflow:visible;"/>
	</clipPath>
	<radialGradient id="SVGID_3_" cx="558.7354" cy="65.3677" r="365.024" gradientUnits="userSpaceOnUse">
		<stop  offset="0" style="stop-color:#FFFFFF"/>
		<stop  offset="0.1143" style="stop-color:#FFFFFF;stop-opacity:0.8857"/>
		<stop  offset="1" style="stop-color:#FFFFFF;stop-opacity:0"/>
	</radialGradient>
	<circle class="st1" cx="558.7" cy="65.4" r="365"/>
	<radialGradient id="SVGID_4_" cx="163.4281" cy="455.5314" r="428.0995" gradientUnits="userSpaceOnUse">
		<stop  offset="0" style="stop-color:#FFFFFF"/>
		<stop  offset="0.1143" style="stop-color:#FFFFFF;stop-opacity:0.8857"/>
		<stop  offset="1" style="stop-color:#FFFFFF;stop-opacity:0"/>
	</radialGradient>
	<circle class="st2" cx="163.4" cy="455.5" r="428.1"/>
</g>
<g>
	<g>
		<g>
			<path class="st3" d="M532.5,499c0-1,0-2,0-3"/>
			<path class="st4" d="M532.9,485.9c6.6-110.8,96.6-199.2,208.1-203.2"/>
			<path class="st3" d="M746,282.5c1,0,2,0,3,0"/>
		</g>
	</g>
	<g>
		<g>
			<path class="st3" d="M748.8,330.6c-0.9,0.4-1.9,0.7-2.8,1.1"/>
			<path class="st5" d="M736.5,334.5c-8.1,2.1-16.6,3.1-25.3,3.1c-56.7,0-102.7-46-102.7-102.7s46-102.7,102.7-102.7
				c9.5,0,18.6,1.3,27.3,3.7"/>
			<path class="st3" d="M743.3,137.4c1,0.3,1.9,0.6,2.8,1"/>
		</g>
	</g>
	<g>
		<g>
			<path class="st3" d="M2.9,96.8c1,0,2,0,3,0"/>
			<path class="st6" d="M15.9,97.6c50.6,6.4,89.6,49.6,89.6,101.9c0,54-41.7,98.3-94.7,102.4"/>
			<path class="st3" d="M5.9,302.2c-1,0-2,0-3,0"/>
		</g>
	</g>
	<g>
		<g>
			<path class="st3" d="M352.6,2.5c-0.2,1-0.5,1.9-0.7,2.9"/>
			<path class="st7" d="M349.2,14.9c-26.9,89-109.5,153.7-207.3,153.7c-50,0-96.1-17-132.7-45.4"/>
			<path class="st3" d="M5.4,120.1c-0.8-0.6-1.5-1.3-2.3-1.9"/>
		</g>
	</g>
	<g>
		<g>
			<line class="st3" x1="720" y1="316.5" x2="717.9" y2="314.4"/>
			<line class="st8" x1="710.9" y1="307.3" x2="478.4" y2="74.9"/>
			<line class="st3" x1="474.9" y1="71.4" x2="472.7" y2="69.2"/>
		</g>
	</g>
	<g>
		<g>
			<line class="st3" x1="68.8" y1="53.7" x2="66.7" y2="51.6"/>
			<line class="st9" x1="60.2" y1="45" x2="21.7" y2="6.6"/>
			<line class="st3" x1="18.4" y1="3.3" x2="16.3" y2="1.2"/>
		</g>
	</g>
	<g>
		<g>
			<line class="st3" x1="113" y1="118.6" x2="110.9" y2="116.4"/>
			<line class="st10" x1="103.9" y1="109.5" x2="6.8" y2="12.3"/>
			<line class="st3" x1="3.3" y1="8.8" x2="1.2" y2="6.7"/>
		</g>
	</g>
	<g>
		<g>
			<line class="st3" x1="417.6" y1="72.9" x2="415.5" y2="70.8"/>
			<line class="st11" x1="408" y1="63.3" x2="351.8" y2="7"/>
			<line class="st3" x1="348" y1="3.3" x2="345.9" y2="1.2"/>
		</g>
	</g>
	<g>
		<g>
			<line class="st3" x1="357.6" y1="42.8" x2="355.5" y2="40.7"/>
			<line class="st12" x1="349.1" y1="34.2" x2="321.4" y2="6.5"/>
			<line class="st3" x1="318.1" y1="3.3" x2="316" y2="1.2"/>
		</g>
	</g>
	<g>
		<g>
			<line class="st3" x1="493.6" y1="499.2" x2="491.5" y2="497.1"/>
			<line class="st13" x1="484.5" y1="490.1" x2="286.8" y2="292.3"/>
			<line class="st3" x1="283.3" y1="288.8" x2="281.2" y2="286.7"/>
		</g>
	</g>
	<g>
		<g>
			<line class="st3" x1="515.1" y1="499.3" x2="512.9" y2="497.2"/>
			<line class="st14" x1="506" y1="490.2" x2="409.2" y2="393.4"/>
			<line class="st3" x1="405.7" y1="389.9" x2="403.6" y2="387.8"/>
		</g>
	</g>
	<linearGradient id="SVGID_5_" gradientUnits="userSpaceOnUse" x1="89.9581" y1="426.53" x2="236.8981" y2="573.47">
		<stop  offset="0" style="stop-color:#FFC92D"/>
		<stop  offset="0.5047" style="stop-color:#FF2E6A"/>
		<stop  offset="1" style="stop-color:#8910B7"/>
	</linearGradient>
	<polygon class="st15" points="310.4,500 163.4,353.1 16.5,500 	"/>
	<polygon class="st16" points="532.3,500 327.9,295.6 123.5,500 	"/>
	<linearGradient id="SVGID_6_" gradientUnits="userSpaceOnUse" x1="148.6371" y1="204.0257" x2="447.5338" y2="502.9223">
		<stop  offset="0" style="stop-color:#FF2E6A"/>
		<stop  offset="1" style="stop-color:#8910B7"/>
	</linearGradient>
	<polygon class="st17" points="212.8,262.4 207,268.2 207,268.3 438.8,500 450.5,500 	"/>
	<linearGradient id="SVGID_7_" gradientUnits="userSpaceOnUse" x1="291.6069" y1="326.607" x2="466.7113" y2="501.7114">
		<stop  offset="0" style="stop-color:#FFC92D"/>
		<stop  offset="1" style="stop-color:#00ECD5"/>
	</linearGradient>
	<polygon class="st18" points="330.5,362.1 327.1,365.5 461.6,500 468.4,500 	"/>
	<g>
		
			<linearGradient id="SVGID_8_" gradientUnits="userSpaceOnUse" x1="267.0484" y1="261.0366" x2="362.9753" y2="356.9634" gradientTransform="matrix(-1 0 0 -1 958.321 309)">
			<stop  offset="0" style="stop-color:#FFC92D"/>
			<stop  offset="0.5047" style="stop-color:#FF2E6A"/>
			<stop  offset="1" style="stop-color:#8910B7"/>
		</linearGradient>
		<polygon class="st19" points="547.4,0 643.3,95.9 739.2,0 		"/>
		<polygon class="st16" points="428,0 558.7,130.7 689.5,0 		"/>
		
			<linearGradient id="SVGID_9_" gradientUnits="userSpaceOnUse" x1="250.7666" y1="200.2451" x2="423.7667" y2="373.2452" gradientTransform="matrix(-1 0 0 -1 958.321 309)">
			<stop  offset="0" style="stop-color:#00ECD5"/>
			<stop  offset="1" style="stop-color:#8910B7"/>
		</linearGradient>
		<polygon class="st20" points="643.3,173 750,66.3 750,22.7 643.3,129.4 513.9,0 470.3,0 		"/>
		<polygon class="st16" points="368,0 436.7,68.7 505.5,0 		"/>
	</g>
	<linearGradient id="SVGID_10_" gradientUnits="userSpaceOnUse" x1="611.6877" y1="161.7884" x2="456.1953" y2="6.296">
		<stop  offset="0" style="stop-color:#FFC92D"/>
		<stop  offset="1" style="stop-color:#00ECD5"/>
	</linearGradient>
	<path class="st21" d="M605.8,152L453.8,0H446l155.9,155.9C603.2,154.6,604.5,153.3,605.8,152z"/>
	<linearGradient id="SVGID_11_" gradientUnits="userSpaceOnUse" x1="9.8072" y1="277.5122" x2="330.3616" y2="598.0666">
		<stop  offset="0" style="stop-color:#00ECD5"/>
		<stop  offset="1" style="stop-color:#8910B7"/>
	</linearGradient>
	<path class="st22" d="M428.4,500h-66.8L163.4,301.8L0,465.2v-66.8L163.4,235L428.4,500z M156,226.2l-47.4-47.4l-47.4,47.4
		l47.4,47.4L156,226.2z"/>
	<linearGradient id="SVGID_12_" gradientUnits="userSpaceOnUse" x1="125.072" y1="163.8002" x2="143.1643" y2="181.8925">
		<stop  offset="0" style="stop-color:#FF2E6A"/>
		<stop  offset="1" style="stop-color:#8910B7"/>
	</linearGradient>
	<polygon class="st23" points="134,191.5 115.1,172.7 134,153.9 152.8,172.7 	"/>
	<linearGradient id="SVGID_13_" gradientUnits="userSpaceOnUse" x1="115.1328" y1="144.44" x2="124.955" y2="154.2622">
		<stop  offset="0" style="stop-color:#FFC92D"/>
		<stop  offset="1" style="stop-color:#00ECD5"/>
	</linearGradient>
	<polygon class="st24" points="119.6,158.3 110.2,148.9 119.6,139.5 129,148.9 	"/>
	<linearGradient id="SVGID_14_" gradientUnits="userSpaceOnUse" x1="679.5571" y1="191.6484" x2="661.1135" y2="173.2048">
		<stop  offset="0" style="stop-color:#FF2E6A"/>
		<stop  offset="1" style="stop-color:#8910B7"/>
	</linearGradient>
	<polygon class="st25" points="689.5,182.7 670.6,201.6 651.8,182.7 670.6,163.9 	"/>
	<linearGradient id="SVGID_15_" gradientUnits="userSpaceOnUse" x1="649.7597" y1="204.8512" x2="640.2461" y2="195.3376">
		<stop  offset="0" style="stop-color:#FFC92D"/>
		<stop  offset="1" style="stop-color:#00ECD5"/>
	</linearGradient>
	<polygon class="st26" points="653.8,199.5 644.4,208.9 635,199.5 644.4,190.1 	"/>
</g>
</svg>
